<svg xmlns="http://www.w3.org/2000/svg" viewBox="0 0 512 512"><defs><style>.cls-1{fill:#9e6f46;}.cls-2{fill:#707789;}.cls-3{fill:#fff;}.cls-4{fill:#5b6272;}.cls-5{fill:#f92814;}.cls-6{fill:#ffe4c2;}.cls-7{fill:#23a8fe;}.cls-8{fill:#ffda45;}.cls-9{fill:#76d67b;}.cls-10{fill:#00b529;}.cls-11{fill:#10a18c;}.cls-12{fill:#d81d13;}.cls-13{fill:#f7453c;}.cls-14{fill:#ff7045;}.cls-15{fill:#636978;}.cls-16{fill:#e8ba64;}</style></defs><title>Development</title><g id="BULINE"><circle class="cls-1" cx="256" cy="256" r="256"/></g><g id="Icons"><path class="cls-2" d="M107.42,69.27H402.9a32,32,0,0,1,32,32V301a0,0,0,0,1,0,0H75.42a0,0,0,0,1,0,0V101.27A32,32,0,0,1,107.42,69.27Z"/><path class="cls-3" d="M125.14,88.9h260A28.77,28.77,0,0,1,414,117.68v153.5a29.8,29.8,0,0,1-29.8,29.8h-258a29.8,29.8,0,0,1-29.8-29.8V117.68A28.77,28.77,0,0,1,125.14,88.9Z"/><rect class="cls-2" x="32.16" y="300.97" width="436" height="63.2" rx="22"/><path class="cls-4" d="M201.83,301H308.49a0,0,0,0,1,0,0v10.79a19.6,19.6,0,0,1-19.6,19.6H221.42a19.6,19.6,0,0,1-19.6-19.6V301a0,0,0,0,1,0,0Z"/><path class="cls-5" d="M86.49,284.51h8.67a8.67,8.67,0,0,1,8.67,8.67V301a0,0,0,0,1,0,0h-26a0,0,0,0,1,0,0v-7.8A8.67,8.67,0,0,1,86.49,284.51Z"/><path class="cls-5" d="M119.16,284.51h8.67a8.67,8.67,0,0,1,8.67,8.67V301a0,0,0,0,1,0,0h-26a0,0,0,0,1,0,0v-7.8A8.67,8.67,0,0,1,119.16,284.51Z"/><path class="cls-5" d="M151.83,284.51h8.67a8.67,8.67,0,0,1,8.67,8.67V301a0,0,0,0,1,0,0h-26a0,0,0,0,1,0,0v-7.8A8.67,8.67,0,0,1,151.83,284.51Z"/><path class="cls-5" d="M184.49,284.51h8.67a8.67,8.67,0,0,1,8.67,8.67V301a0,0,0,0,1,0,0h-26a0,0,0,0,1,0,0v-7.8a8.67,8.67,0,0,1,8.67-8.67Z"/><path class="cls-5" d="M227.52,284.51h55.29a15.85,15.85,0,0,1,15.85,15.85V301a0,0,0,0,1,0,0h-87a0,0,0,0,1,0,0v-.62A15.85,15.85,0,0,1,227.52,284.51Z"/><path class="cls-5" d="M320.83,284.51h8.67a8.67,8.67,0,0,1,8.67,8.67V301a0,0,0,0,1,0,0h-26a0,0,0,0,1,0,0v-7.8A8.67,8.67,0,0,1,320.83,284.51Z"/><path class="cls-5" d="M353.49,284.51h8.67a8.67,8.67,0,0,1,8.67,8.67V301a0,0,0,0,1,0,0h-26a0,0,0,0,1,0,0v-7.8A8.67,8.67,0,0,1,353.49,284.51Z"/><path class="cls-5" d="M386.16,284.51h8.67a8.67,8.67,0,0,1,8.67,8.67V301a0,0,0,0,1,0,0h-26a0,0,0,0,1,0,0v-7.8a8.67,8.67,0,0,1,8.67-8.67Z"/><path class="cls-5" d="M418.83,284.51h8.67a8.67,8.67,0,0,1,8.67,8.67V301a0,0,0,0,1,0,0h-26a0,0,0,0,1,0,0v-7.8A8.67,8.67,0,0,1,418.83,284.51Z"/><path class="cls-6" d="M387.66,127.35V242.89a18.56,18.56,0,0,1-18.55,18.55H141.21a18.55,18.55,0,0,1-18.54-18.55V127.35a18.54,18.54,0,0,1,18.54-18.54h227.9A18.55,18.55,0,0,1,387.66,127.35Z"/><path class="cls-7" d="M387.65,127.35v10.81h-265V127.35a18.54,18.54,0,0,1,18.54-18.54h227.9A18.54,18.54,0,0,1,387.65,127.35Z"/><circle class="cls-5" cx="146.8" cy="123.48" r="7.39"/><circle class="cls-8" cx="170.14" cy="123.48" r="7.39"/><circle class="cls-9" cx="193.48" cy="123.48" r="7.39"/><path class="cls-9" d="M488.08,364.17a256.07,256.07,0,0,1-440.17,41,254.5,254.5,0,0,1-24-41Z"/><path class="cls-10" d="M464.09,405.14a256,256,0,0,1-416.18,0Z"/><path class="cls-11" d="M321.2,244,314,242.67a62.18,62.18,0,0,0-4.55-10.82l3.21-4.7A11.11,11.11,0,0,0,311.3,213l-8.14-8.15A11.12,11.12,0,0,0,289,203.56l-4.67,3.2a60.75,60.75,0,0,0-11.11-4.65l-1.39-7.43a11.12,11.12,0,0,0-10.93-9.07H249.4a11.12,11.12,0,0,0-10.92,9.07l-1.39,7.43a60.51,60.51,0,0,0-11.69,5l-5.14-3.52a11.11,11.11,0,0,0-14.13,1.31L198,213a11.11,11.11,0,0,0-1.31,14.13l3.81,5.57a61.56,61.56,0,0,0-4.1,9.95L189.12,244A11.12,11.12,0,0,0,180.06,255v6.48h51.52c0-.16,0-.33,0-.5a23.59,23.59,0,1,1,47.18,0c0,.17,0,.34,0,.5h51.53V255A11.12,11.12,0,0,0,321.2,244Z"/><rect class="cls-12" x="246.84" y="-50.34" width="8.43" height="200.92" transform="translate(200.93 301.18) rotate(-90)"/><rect class="cls-5" x="246.84" y="-58.77" width="8.43" height="200.92" transform="translate(209.37 292.74) rotate(-90)"/><rect class="cls-13" x="246.84" y="-67.2" width="8.43" height="200.92" transform="translate(217.8 284.31) rotate(-90)"/><path class="cls-14" d="M354.29,26.27h25.3a0,0,0,0,1,0,0V47.11a10,10,0,0,1-10,10h-5.3a10,10,0,0,1-10-10V26.27a0,0,0,0,1,0,0Z" transform="translate(325.25 408.62) rotate(-90)"/><rect class="cls-15" x="343.33" y="37.23" width="25.3" height="8.91" transform="translate(314.28 397.66) rotate(-90)"/><path class="cls-16" d="M150.59,29v25.3l-12.84-6.65-6.51-3.38a3,3,0,0,1,0-5.25l6.51-3.37Z"/><path class="cls-15" d="M137.75,35.69v12l-6.51-3.38a3,3,0,0,1,0-5.25Z"/></g></svg>